<?xml version="1.0" encoding="UTF-8" ?>
<!DOCTYPE svg PUBLIC "-//W3C//DTD SVG 1.1//EN" "http://www.w3.org/Graphics/SVG/1.1/DTD/svg11.dtd">
<svg width="1002pt" height="110pt" viewBox="0 0 1002 110" version="1.1" xmlns="http://www.w3.org/2000/svg">
<g id="#2d67b2ff">
<path fill="#2d67b2" opacity="1.00" d=" M 33.24 0.00 L 44.48 0.00 C 53.51 1.44 62.16 5.86 68.14 12.86 C 75.09 20.74 78.39 31.92 76.09 42.25 C 74.24 49.74 70.94 56.77 67.45 63.61 C 59.05 79.78 49.02 95.03 38.69 110.00 L 38.34 110.00 C 36.72 106.34 34.02 103.34 31.89 99.98 C 22.73 86.22 13.89 72.16 6.80 57.21 C 3.02 48.71 -0.99 39.43 1.07 29.94 C 3.63 14.26 17.67 1.90 33.24 0.00 Z" />
</g>
<g id="#058253ff">
<path fill="#058253" opacity="1.00" d=" M 432.00 0.00 L 544.25 0.00 C 544.25 36.41 544.26 72.83 544.24 109.24 C 506.83 109.25 469.42 109.25 432.01 109.25 C 431.99 72.83 432.00 36.42 432.00 0.00 Z" />
</g>
<g id="#f8971dff">
<path fill="#f8971d" opacity="1.00" d=" M 621.22 0.00 L 682.24 0.00 C 691.88 17.79 701.33 35.68 711.03 53.45 C 701.22 71.92 691.22 90.29 681.38 108.74 C 661.60 108.77 641.83 108.73 622.06 108.76 C 612.13 90.34 602.17 71.94 592.37 53.46 C 602.06 35.68 611.43 17.72 621.22 0.00 Z" />
</g>
<g id="#5f2877ff">
<path fill="#5f2877" opacity="1.00" d=" M 798.21 0.00 L 801.79 0.00 C 819.89 18.01 838.13 35.88 856.24 53.88 C 837.51 72.45 818.71 90.95 800.00 109.53 C 781.29 90.92 762.41 72.49 743.76 53.82 C 761.92 35.89 780.09 17.97 798.21 0.00 Z" />
</g>
<g id="#9b3120ff">
<path fill="#9b3120" opacity="1.00" d=" M 891.68 0.00 L 1001.43 0.00 C 985.22 32.02 969.36 64.22 953.33 96.33 C 951.16 100.91 948.58 105.30 946.69 110.00 L 946.36 110.00 C 938.72 93.46 930.13 77.36 922.12 60.99 C 911.89 40.70 901.89 20.29 891.68 0.00 Z" />
</g>
<g id="#5998d1ff">
<path fill="#5998d1" opacity="1.00" d=" M 166.52 1.58 C 179.56 -0.75 193.48 1.26 204.93 8.07 C 219.01 16.14 229.12 30.78 231.44 46.87 C 233.39 59.79 230.50 73.40 223.30 84.32 C 214.68 97.71 199.93 106.87 184.12 108.77 C 167.90 110.95 150.79 105.47 138.97 94.12 C 130.04 85.75 124.10 74.25 122.54 62.10 C 120.49 47.59 124.78 32.31 134.06 20.97 C 142.14 10.94 153.87 3.96 166.52 1.58 M 169.48 11.68 C 159.16 13.40 149.61 18.97 142.87 26.93 C 135.02 36.24 131.16 48.94 133.05 61.02 C 134.42 70.72 139.25 79.88 146.40 86.56 C 156.19 95.98 170.50 100.44 183.90 98.23 C 195.05 96.52 205.46 90.40 212.34 81.45 C 219.73 71.97 223.01 59.30 220.80 47.45 C 218.39 33.21 208.32 20.66 195.14 14.87 C 187.14 11.35 178.09 10.09 169.48 11.68 Z" />
<path fill="#5998d1" opacity="1.00" d=" M 167.50 23.70 C 181.66 19.51 198.16 25.54 205.81 38.27 C 214.37 51.46 211.64 70.51 199.65 80.71 C 186.65 92.83 164.22 91.89 152.25 78.76 C 140.59 67.01 140.09 46.45 151.15 34.14 C 155.42 29.16 161.21 25.52 167.50 23.70 Z" />
</g>
<g id="#fec413ff">
<path fill="#fec413" opacity="1.00" d=" M 320.55 1.62 C 333.48 -1.10 347.43 0.84 358.92 7.45 C 370.48 14.01 379.52 24.93 383.65 37.58 C 388.58 52.66 386.76 69.94 378.23 83.39 C 369.84 97.11 355.02 106.66 339.05 108.57 C 327.90 110.02 316.27 107.96 306.39 102.56 C 291.79 94.86 281.12 80.11 278.54 63.79 C 276.37 51.32 278.77 38.11 285.21 27.20 C 292.72 14.24 305.89 4.70 320.55 1.62 Z" />
</g>
</svg>
